<?xml version="1.0" encoding="UTF-8"?>
<svg version="1.1" xmlns="http://www.w3.org/2000/svg" width="32" height="29">
<path d="M0 0 C10.56 0 21.12 0 32 0 C32 9.57 32 19.14 32 29 C21.44 29 10.88 29 0 29 C0 19.43 0 9.86 0 0 Z " fill="#243E97" transform="translate(0,0)"/>
<path d="M0 0 C5.10329727 -0.36308044 8.87463833 -0.58277658 13.5 1.8125 C16.94427504 4.82624066 17.93998128 6.25576791 18.3125 10.875 C18.20787568 14.67635037 17.41999831 16.97500212 15 20 C12.3710719 22.38246609 11.61165822 23 8 23 C7.875 20.125 7.875 20.125 8 17 C8.66 16.34 9.32 15.68 10 15 C10.16677282 11.41656024 10.16677282 11.41656024 10 8 C6.7 7.34 3.4 6.68 0 6 C0 4.02 0 2.04 0 0 Z " fill="#EBECF1" transform="translate(11,3)"/>
<path d="M0 0 C1.98 0 3.96 0 6 0 C6 5.61 6 11.22 6 17 C8.64 17 11.28 17 14 17 C14 18.98 14 20.96 14 23 C9.38 23 4.76 23 0 23 C0 15.41 0 7.82 0 0 Z " fill="#F0F1F4" transform="translate(3,3)"/>
<path d="M0 0 C0.33 0 0.66 0 1 0 C1 1.98 1 3.96 1 6 C3.97851562 5.90234375 3.97851562 5.90234375 6.95703125 5.8046875 C9 6 9 6 12 8 C12.3125 11.5 12.3125 11.5 12 15 C10 17 10 17 7.6171875 17.1953125 C6.71226563 17.17210938 5.80734375 17.14890625 4.875 17.125 C3.26625 17.08375 1.6575 17.0425 0 17 C0 11.39 0 5.78 0 0 Z " fill="#1C3894" transform="translate(10,3)"/>
</svg>
